<svg xmlns="http://www.w3.org/2000/svg" viewBox="0 0 100 100">
  <circle cx="50" cy="50" r="48" fill="#1d1d1d"/>
  <g fill="#fff">
    <rect x="18" y="28" width="12" height="3"/>
    <rect x="18" y="33" width="12" height="3"/>
    <rect x="22" y="38" width="4" height="3"/>
    <rect x="22" y="43" width="4" height="3"/>
    <rect x="18" y="48" width="12" height="3"/>
    <rect x="18" y="53" width="12" height="3"/>
    <rect x="22" y="58" width="4" height="3"/>
    <rect x="22" y="63" width="4" height="3"/>
    <rect x="18" y="68" width="12" height="3"/>
    <rect x="18" y="73" width="12" height="3"/>
    <rect x="36" y="28" width="12" height="3"/>
    <rect x="50" y="28" width="4" height="3"/>
    <rect x="36" y="33" width="12" height="3"/>
    <rect x="50" y="33" width="4" height="3"/>
    <rect x="36" y="38" width="8" height="3"/>
    <rect x="48" y="38" width="6" height="3"/>
    <rect x="36" y="43" width="8" height="3"/>
    <rect x="48" y="43" width="6" height="3"/>
    <rect x="36" y="48" width="18" height="3"/>
    <rect x="36" y="53" width="18" height="3"/>
    <rect x="36" y="58" width="8" height="3"/>
    <rect x="47" y="58" width="7" height="3"/>
    <rect x="36" y="63" width="8" height="3"/>
    <rect x="47" y="63" width="7" height="3"/>
    <rect x="36" y="68" width="12" height="3"/>
    <rect x="50" y="68" width="4" height="3"/>
    <rect x="36" y="73" width="12" height="3"/>
    <rect x="50" y="73" width="4" height="3"/>
    <rect x="60" y="28" width="6" height="3"/>
    <rect x="60" y="33" width="6" height="3"/>
    <rect x="60" y="38" width="8" height="3"/>
    <rect x="72" y="28" width="6" height="3"/>
    <rect x="72" y="33" width="6" height="3"/>
    <rect x="68" y="38" width="8" height="3"/>
    <rect x="60" y="43" width="10" height="3"/>
    <rect x="70" y="43" width="10" height="3"/>
    <rect x="60" y="48" width="6" height="3"/>
    <rect x="74" y="48" width="6" height="3"/>
    <rect x="60" y="53" width="6" height="3"/>
    <rect x="74" y="53" width="6" height="3"/>
    <rect x="60" y="58" width="6" height="3"/>
    <rect x="74" y="58" width="6" height="3"/>
    <rect x="60" y="63" width="6" height="3"/>
    <rect x="74" y="63" width="6" height="3"/>
    <rect x="60" y="68" width="10" height="3"/>
    <rect x="70" y="68" width="10" height="3"/>
    <rect x="60" y="73" width="8" height="3"/>
    <rect x="72" y="73" width="8" height="3"/>
  </g>
</svg>